<svg width="375" height="218" viewBox="0 0 375 218" fill="none" xmlns="http://www.w3.org/2000/svg">
<path d="M0 178.272V178.272C0.97383 177.197 2.75584 177.664 3.07612 179.079L4.23389 184.196C4.4538 185.168 5.84673 185.144 6.0328 184.165V184.165C6.22253 183.167 7.65268 183.169 7.83882 184.168L8.16124 185.898C8.40948 187.23 10.3033 187.271 10.6082 185.951L12.9833 175.669C13.089 175.211 13.7153 175.149 13.909 175.577V175.577C14.0983 175.995 14.7069 175.948 14.8295 175.505L17.1055 167.294C17.5911 165.543 19.9936 165.34 20.7659 166.985L22.0347 169.689C22.4028 170.473 23.5537 170.355 23.754 169.512L23.9905 168.516C24.1757 167.737 25.3025 167.791 25.4118 168.585V168.585C25.5245 169.402 26.6987 169.424 26.8418 168.611L27.3609 165.662C27.5853 164.386 29.3948 164.331 29.6969 165.59L31.25 172.061L33.0517 178.886C33.2564 179.662 34.2708 179.849 34.7393 179.199L34.9187 178.949C35.4009 178.28 36.4583 178.621 36.4583 179.446V180.699C36.4583 181.557 37.6932 181.689 37.8744 180.85L38.0275 180.142C38.0941 179.833 38.4895 179.741 38.6855 179.988V179.988C38.9053 180.266 39.3518 180.111 39.3518 179.757V178.807C39.3518 178.002 40.484 177.827 40.727 178.594L41.5247 181.113C41.724 181.741 42.6264 181.703 42.772 181.06V181.06C42.9241 180.388 43.8815 180.388 44.0335 181.06L45.2443 186.411C45.4532 187.334 46.5876 187.679 47.2748 187.028V187.028C48.0302 186.312 49.2769 186.809 49.3337 187.848L50.9259 217L53.566 186.332C53.6342 185.54 54.7102 185.356 55.0378 186.08V186.08C55.3565 186.784 56.3973 186.634 56.505 185.869L57.7456 177.058C57.9522 175.591 59.9439 175.297 60.5653 176.642V176.642C61.1705 177.952 63.0997 177.717 63.3726 176.3L66.3738 160.721C66.6678 159.195 68.845 159.176 69.1661 160.696L69.5844 162.677C69.7278 163.356 70.6492 163.47 70.9533 162.846V162.846C71.2922 162.15 72.338 162.392 72.338 163.165V166.87C72.338 167.742 73.4766 168.072 73.9429 167.336V167.336C74.2782 166.807 75.0459 166.795 75.3977 167.313L75.6094 167.625C75.9698 168.156 76.7613 168.127 77.0816 167.571V167.571C77.5256 166.8 78.7037 167.115 78.7037 168.004V170.339C78.7037 170.99 79.482 171.324 79.9543 170.877V170.877C80.3955 170.459 81.1243 170.721 81.1992 171.324L81.4097 173.018C81.6476 174.933 84.4435 174.874 84.6002 172.95L87.7346 134.473C87.8378 133.206 89.6761 133.16 89.8424 134.42L89.994 135.568C90.0821 136.236 90.9759 136.396 91.2903 135.8V135.8C91.627 135.163 92.5926 135.402 92.5926 136.123V145.165C92.5926 146.261 93.9487 146.772 94.6722 145.95V145.95C95.1168 145.445 95.892 145.41 96.3807 145.872L96.5575 146.04C97.4643 146.899 98.9583 146.256 98.9583 145.007V126.446C98.9583 125.225 100.718 125.045 100.965 126.241V126.241C101.203 127.392 102.882 127.283 102.969 126.111L104.125 110.603C104.225 109.266 106.14 109.145 106.407 110.459V110.459C106.661 111.712 108.461 111.683 108.675 110.422L109.137 107.7C109.239 107.102 109.967 106.858 110.408 107.276V107.276C110.892 107.734 111.69 107.391 111.69 106.724V101.357C111.69 100.862 112.33 100.665 112.608 101.075V101.075C112.877 101.47 113.493 101.303 113.526 100.827L114.7 83.7745C114.786 82.5235 116.557 82.3553 116.878 83.5678L116.964 83.8943C117.168 84.6695 118.183 84.8572 118.651 84.2065V84.2065C119.19 83.4588 120.37 83.8396 120.37 84.7609V92.8397C120.37 93.7976 121.718 94.0059 122.007 93.0928L122.06 92.9271C122.276 92.245 123.223 92.1972 123.507 92.854L123.658 93.2045C123.903 93.7727 124.731 93.7028 124.877 93.1014V93.1014C125.041 92.428 126.007 92.4518 126.137 93.1325L126.606 95.5751C126.857 96.8821 128.739 96.8491 128.944 95.5341L130.042 88.4904C130.32 86.7019 132.864 86.6153 133.264 88.3808L133.378 88.8861C133.538 89.5918 134.285 89.9931 134.961 89.7368V89.7368C135.741 89.4417 136.574 90.0173 136.574 90.8504V106.02C136.574 106.204 136.599 106.387 136.65 106.565L138.161 111.907C138.598 113.453 140.735 113.595 141.372 112.119L141.816 111.092C142.241 110.106 143.638 110.107 144.064 111.092L144.958 113.161C145.284 113.917 146.412 113.684 146.412 112.861V112.861C146.412 112.01 147.598 111.804 147.884 112.605L148.438 114.153C148.832 115.255 150.463 114.972 150.463 113.801V108.228C150.463 107.435 151.37 106.985 152.002 107.463V107.463C152.597 107.914 153.457 107.542 153.535 106.799L154.581 96.8948C154.723 95.5534 156.546 95.2594 157.102 96.4883L157.668 97.7396C157.978 98.4236 158.97 98.3559 159.184 97.6361V97.6361C159.435 96.792 160.662 96.8964 160.767 97.7707L161.363 102.757C161.608 104.813 164.532 104.973 165 102.955L165.841 99.3239C165.954 98.8372 166.541 98.6415 166.924 98.9633V98.9633C167.321 99.2975 167.93 99.0719 168.014 98.5597L168.379 96.3353C168.628 94.8166 170.791 94.7596 171.119 96.2631L171.234 96.7872C171.463 97.837 172.86 98.063 173.409 97.1391V97.1391C174.002 96.1407 175.528 96.5039 175.608 97.6624L175.688 98.8174C175.753 99.773 177.04 100.028 177.465 99.1693V99.1693C177.875 98.3407 179.11 98.5417 179.236 99.4576L180.406 107.952C180.645 109.687 182.942 110.142 183.824 108.63L184.442 107.571C184.799 106.959 185.66 106.898 186.1 107.453V107.453C186.513 107.975 187.309 107.959 187.702 107.422L188.086 106.897C188.897 105.787 190.651 106.262 190.791 107.631L193.502 134.158C193.592 135.043 194.815 135.202 195.128 134.37L196.393 131.018C196.467 130.821 196.759 130.874 196.759 131.085V131.085C196.759 131.317 197.097 131.346 197.136 131.117L198.251 124.546C198.353 123.943 199.094 123.709 199.525 124.144L200.547 125.176C200.856 125.489 201.389 125.269 201.389 124.829V124.829C201.389 124.278 202.158 124.143 202.345 124.663L202.836 126.027C203.119 126.813 204.282 126.61 204.282 125.774V116.782C204.282 115.878 205.278 115.329 206.042 115.812V115.812C206.638 116.188 207.428 115.943 207.708 115.297L208.355 113.799C208.87 112.607 210.648 112.975 210.648 114.273V117.009C210.648 117.66 211.537 117.852 211.806 117.258L211.958 116.922C212.191 116.406 212.963 116.573 212.963 117.139V117.139C212.963 117.716 213.758 117.872 213.976 117.338L215.92 112.583C216.471 111.235 218.413 111.339 218.816 112.739L219.391 114.735C219.578 115.385 220.463 115.476 220.779 114.878V114.878C221.094 114.281 221.975 114.369 222.165 115.017L224.088 121.574C224.27 122.192 225.084 122.327 225.455 121.801V121.801C225.887 121.187 226.852 121.493 226.852 122.243V141.553C226.852 142.175 227.651 142.428 228.009 141.92V141.92C228.367 141.411 229.167 141.665 229.167 142.286V151.174C229.167 152.237 230.471 152.748 231.192 151.967L232.554 150.493C232.79 150.237 233.218 150.405 233.218 150.753V150.753C233.218 151.222 233.898 151.279 233.977 150.817L235.117 144.165C235.16 143.912 235.532 143.944 235.532 144.2V144.2C235.532 144.434 235.859 144.492 235.939 144.272L241.068 130.141C241.418 129.177 242.708 129.004 243.299 129.844V129.844C243.768 130.509 244.732 130.568 245.278 129.965L246.758 128.33C247.599 127.401 249.14 127.857 249.341 129.093L249.45 129.765C249.713 131.385 252.067 131.315 252.233 129.682V129.682C252.408 127.958 254.938 128.017 255.032 129.747L256.135 149.944C256.19 150.935 257.555 151.157 257.92 150.234V150.234C258.273 149.342 259.583 149.51 259.699 150.463L260.804 159.534C260.879 160.147 261.64 160.388 262.055 159.93L262.552 159.381C262.819 159.086 263.31 159.275 263.31 159.673V159.673C263.31 160.199 264.068 160.275 264.172 159.76L266.587 147.817C266.611 147.701 266.782 147.718 266.782 147.837V147.837C266.782 147.944 266.929 147.974 266.971 147.876L269.148 142.836C269.573 141.853 270.963 141.841 271.405 142.817L271.938 143.995C272.28 144.752 273.19 145.064 273.925 144.677V144.677C274.887 144.171 276.042 144.869 276.042 145.955V154.86C276.042 156.015 277.624 156.342 278.082 155.282V155.282C278.503 154.308 279.933 154.482 280.108 155.529L281.958 166.626C282.27 168.497 284.812 168.839 285.608 167.117L285.873 166.543C286.385 165.435 287.91 165.31 288.596 166.319V166.319C289.348 167.428 291.054 167.144 291.407 165.852L292.649 161.303C292.891 160.419 294.118 160.351 294.456 161.203V161.203C294.843 162.181 296.296 161.904 296.296 160.852V158.036C296.296 157.247 297.333 156.956 297.743 157.63V157.63C298.153 158.303 299.19 158.013 299.19 157.224V155.685C299.19 154.724 300.477 154.405 300.926 155.255V155.255C301.375 156.105 302.662 155.786 302.662 154.825V152.698M302.662 146.852V152.698M302.662 152.698L305.629 147.703C305.906 147.237 306.513 147.091 306.971 147.38V147.38C307.613 147.785 308.449 147.324 308.449 146.566V136.43C308.449 135.325 309.345 134.43 310.449 134.43H311.079C312.183 134.43 313.079 133.534 313.079 132.43V125.065C313.079 124.011 314.388 123.524 315.078 124.321V124.321C315.688 125.028 316.842 124.739 317.048 123.829L319.075 114.872C319.217 114.243 320.037 114.081 320.408 114.608V114.608C320.826 115.202 321.759 114.906 321.759 114.18V105.36C321.759 104.245 323.244 103.861 323.785 104.836V104.836C324.326 105.812 325.81 105.428 325.81 104.312V96.6854C325.81 95.2816 327.626 94.7235 328.414 95.885V95.885C329.203 97.0465 331.019 96.4885 331.019 95.0846V61.558C331.019 60.4677 332.479 60.1058 332.988 61.07V61.07C333.38 61.8129 334.444 61.8129 334.836 61.07V61.07C335.345 60.1059 336.806 60.4677 336.806 61.558V67.5701L340.374 18.4891C340.423 17.8164 341.346 17.6697 341.601 18.2942V18.2942C341.846 18.8949 342.727 18.7887 342.823 18.1468L343.091 16.3426C343.286 15.0308 345.186 15.0558 345.347 16.3723L346.644 27.0157V20.9209C346.644 19.7937 348.162 19.4328 348.669 20.4394V20.4394C349.176 21.446 350.694 21.085 350.694 19.9578V13.5545C350.694 12.66 351.606 12.0546 352.431 12.4016V12.4016C353.255 12.7486 354.167 12.1432 354.167 11.2487V4.40847C354.167 3.23322 355.666 2.73912 356.365 3.68421V3.68421C357.024 4.5762 358.436 4.19492 358.556 3.09226L358.653 2.2041C358.86 0.305868 361.638 0.357165 361.775 2.26176L362.188 8.00047C362.234 8.62763 362.756 9.11339 363.384 9.11339V9.11339C364.047 9.11339 364.583 9.65021 364.583 10.3124V21.7677C364.583 22.3716 365.44 22.4891 365.603 21.9075V21.9075C365.756 21.3582 366.555 21.4222 366.619 21.9889L367.089 26.1456C367.26 27.6609 369.429 27.7507 369.725 26.2548L369.943 25.1539C370.149 24.1145 371.334 23.6051 372.23 24.1707L375 25.9197" stroke="url(#paint0_linear_1536_2292)" stroke-opacity="0.5" stroke-linejoin="round"/>
<defs>
<linearGradient id="paint0_linear_1536_2292" x1="0" y1="101" x2="375" y2="101" gradientUnits="userSpaceOnUse">
<stop stop-color="white" stop-opacity="0.21"/>
<stop offset="1" stop-color="white"/>
</linearGradient>
</defs>
</svg>
