<svg width="275" height="119" viewBox="0 0 275 119" fill="none" xmlns="http://www.w3.org/2000/svg">
<rect width="274.459" height="118.322" rx="10" fill="#F9F9F9" fill-opacity="0.88"/>
<path d="M69.6517 58.401L69.6016 28.5049L72.6579 43.2563L78.3197 42.8629L86.2863 55.2049L77.6684 54.0248L80.1736 48.2717L74.2613 50.9762V53.8773L69.6517 58.401Z" fill="#151515"/>
<path d="M67.6484 37.8L66.7966 42.963L54.02 50.2404L53.8196 56.436L62.3373 54.5183L59.6818 49.1586L65.0931 51.9122L64.9427 54.8133L68.9511 58.8454H99.8655L85.0346 61.6973L84.7841 67.2536L72.8091 75.0227L74.3123 66.6144L79.7235 69.0238L77.068 63.3199L73.9114 63.7133L70.2037 59.4846H39.7402L50.5628 57.1244L50.6129 47.7818L67.6484 37.8Z" fill="#151515"/>
<path d="M64.7387 64.152L69.5988 59.7266L69.3984 88.7376L67.6447 80.0835L50.3086 70.4459V61.1525L53.7658 62.4802V67.8398L66.3921 75.0188L64.7888 66.6597L59.127 69.4625L62.1332 63.4144L64.7387 64.152Z" fill="#151515"/>
<path d="M74.0635 38.0959L81.98 35.3423L84.7858 44.8323L74.0635 38.0959Z" fill="#EFD027"/>
<path d="M141.155 54.8105C140.697 54.194 140.093 53.6968 139.394 53.3625C138.695 53.0282 137.924 52.867 137.147 52.8928C135.793 52.8972 134.496 53.4276 133.539 54.368C132.515 55.3719 131.938 56.7335 131.936 58.1542C131.936 61.3011 134.291 63.563 137.097 63.563C137.845 63.5985 138.591 63.4561 139.272 63.1479C139.952 62.8397 140.547 62.3748 141.005 61.7928H145.063C143.46 65.1857 140.804 66.9067 137.097 66.9067C135.874 66.9145 134.664 66.6638 133.548 66.1717C132.433 65.6796 131.439 64.9575 130.633 64.0547C129.136 62.3467 128.35 60.147 128.434 57.8954C128.517 55.6437 129.464 53.5059 131.084 51.9094C131.872 51.1346 132.81 50.5223 133.842 50.1085C134.875 49.6947 135.981 49.4878 137.097 49.5C140.854 49.5 143.46 51.221 145.113 54.8105H141.155Z" fill="#151515"/>
<path d="M184.389 65.0433C183.688 66.3218 182.385 66.8626 180.381 66.8626C179.487 66.8763 178.599 66.712 177.772 66.3795C176.944 66.047 176.194 65.5533 175.567 64.9283C174.939 64.3032 174.447 63.5597 174.121 62.7428C173.794 61.9259 173.64 61.0525 173.667 60.1754C173.647 58.4563 174.312 56.7976 175.521 55.5533C176.127 54.9131 176.865 54.4068 177.685 54.0677C178.506 53.7286 179.391 53.5645 180.281 53.5864C182.135 53.5864 183.488 54.1765 184.339 55.4549V53.9306H187.145V66.5676H184.389V65.0433ZM180.481 63.9124C181.428 63.87 182.323 63.4753 182.984 62.8085C183.645 62.1417 184.022 61.2529 184.039 60.3229C184.059 59.3547 183.694 58.4169 183.02 57.7096C182.346 57.0023 181.417 56.5814 180.431 56.5367C179.947 56.5366 179.467 56.6311 179.02 56.8145C178.573 56.998 178.167 57.2668 177.827 57.6053C177.487 57.9439 177.218 58.3454 177.038 58.7866C176.857 59.2278 176.767 59.6999 176.774 60.1754C176.762 60.6609 176.85 61.1437 177.031 61.5957C177.212 62.0477 177.483 62.4597 177.828 62.8077C178.173 63.1556 178.586 63.4325 179.041 63.6222C179.497 63.8119 179.986 63.9105 180.481 63.9124Z" fill="#151515"/>
<path d="M192.813 60.1225V66.5639H190.007V53.9269H192.612V55.4021C192.979 54.876 193.473 54.4477 194.05 54.1559C194.628 53.864 195.27 53.7177 195.919 53.7302V56.4838C193.364 56.6805 192.813 57.7623 192.813 60.1225Z" fill="#151515"/>
<path d="M197.21 66.5654V49.8472H200.016V59.8289L204.174 53.9776H207.582L203.122 59.9764L208.483 66.6146H204.726L200.066 60.1731V66.6146L197.21 66.5654Z" fill="#151515"/>
<path d="M214.503 64.1071C215.109 64.1373 215.713 64.0072 216.25 63.7304C216.788 63.4536 217.24 63.0403 217.559 62.5337H220.816C219.714 65.3364 217.409 66.9099 214.553 66.9099C213.656 66.9319 212.763 66.7681 211.935 66.4292C211.106 66.0903 210.359 65.584 209.743 64.943C208.527 63.6799 207.846 62.0097 207.839 60.2718C207.822 58.5269 208.507 56.8457 209.745 55.5935C210.983 54.3414 212.675 53.6194 214.453 53.5845C215.553 53.5823 216.637 53.8403 217.614 54.3368C218.591 54.8332 219.432 55.5535 220.065 56.4364C220.922 57.6439 221.345 59.0971 221.267 60.5668V61.206H210.946C211.096 62.9762 212.449 64.1071 214.503 64.1071ZM214.453 56.2397C213.667 56.247 212.904 56.5052 212.28 56.9753C211.657 57.4454 211.206 58.102 210.996 58.8458H218.01C217.822 58.0717 217.362 57.387 216.712 56.9108C216.062 56.4346 215.263 56.1972 214.453 56.2397Z" fill="#151515"/>
<path d="M224.024 56.5345H222.07V53.9284H224.024V49.8472H226.83V53.9284H229.035V56.5345H226.83V66.5654H224.024V56.5345Z" fill="#151515"/>
<path d="M232.393 62.5299C232.393 63.6609 233.045 64.3984 233.947 64.3984C234.139 64.4127 234.333 64.3876 234.515 64.3248C234.697 64.262 234.865 64.1627 235.006 64.0334C235.147 63.904 235.259 63.7473 235.336 63.5732C235.412 63.399 235.451 63.2112 235.45 63.0216C235.45 62.2349 235.049 61.8415 234.047 61.3498C232.894 60.8089 232.043 60.6122 231.642 60.268C231.185 59.9328 230.819 59.4934 230.575 58.9879C230.33 58.4824 230.215 57.926 230.239 57.3669C230.236 56.8624 230.334 56.3622 230.53 55.8953C230.725 55.4285 231.013 55.0044 231.376 54.6476C231.74 54.2908 232.172 54.0085 232.648 53.8169C233.123 53.6253 233.633 53.5283 234.147 53.5316C236.452 53.5316 237.855 54.9084 237.955 57.2686H235.249V57.2194C235.249 56.3835 234.798 55.941 234.047 55.941C233.892 55.9442 233.74 55.9772 233.598 56.0383C233.457 56.0993 233.329 56.1871 233.222 56.2967C233.115 56.4063 233.031 56.5355 232.974 56.677C232.918 56.8184 232.891 56.9693 232.894 57.1211C232.894 58.1045 233.746 58.252 235.35 58.9404C237.354 59.8255 238.206 60.6614 238.206 62.8249C238.206 65.1852 236.402 66.9062 233.897 66.9062C231.391 66.9062 229.788 65.2343 229.638 62.3824H232.393V62.5299Z" fill="#151515"/>
<path d="M154.729 66.5654V49.8472H158.637L162.996 62.0416L167.305 49.8472H171.213V66.6146H168.407L168.507 54.4693L164.198 66.6146H161.693L157.384 54.4693L157.534 66.6146L154.729 66.5654Z" fill="#151515"/>
<path d="M109.539 66.5654V49.8472H113.447L117.806 62.0416L122.115 49.8472H126.023V66.6146H123.218L123.318 54.4693L119.009 66.6146H116.504L112.195 54.4693L112.345 66.6146L109.539 66.5654Z" fill="#151515"/>
</svg>
