<svg width="275" height="119" viewBox="0 0 275 119" fill="none" xmlns="http://www.w3.org/2000/svg">
<rect width="274.459" height="118.322" rx="10" fill="#F9F9F9" fill-opacity="0.88"/>
<path d="M177.182 48.9824H169.083C168.537 48.9824 168.064 49.3826 167.955 49.9284L164.688 70.6669C164.615 71.0671 164.943 71.4309 165.343 71.4309H169.483C169.883 71.4309 170.211 71.1399 170.247 70.776L171.193 64.8965C171.266 64.3507 171.739 63.9505 172.321 63.9505H174.861C180.202 63.9505 183.251 61.3746 184.051 56.2518C184.415 54.0397 184.051 52.2569 183.032 51.0199C181.934 49.6737 179.903 48.9824 177.182 48.9824ZM178.121 56.5356C177.684 59.439 175.472 59.439 173.325 59.439H172.088L172.961 54.0252C172.998 53.6977 173.289 53.443 173.616 53.443H174.162C175.617 53.443 176.993 53.443 177.72 54.2798C178.157 54.7892 178.266 55.5169 178.121 56.5356Z" fill="#009CDE"/>
<path d="M119.551 48.9824H111.452C110.906 48.9824 110.433 49.3826 110.324 49.9284L107.057 70.6669C106.984 71.0671 107.312 71.4309 107.712 71.4309H111.561C112.107 71.4309 112.58 71.0307 112.689 70.485L113.562 64.8892C113.635 64.3435 114.108 63.9432 114.69 63.9432H117.23C122.571 63.9432 125.62 61.3673 126.42 56.2445C126.784 54.0324 126.42 52.2496 125.402 51.0126C124.31 49.6737 122.273 48.9824 119.551 48.9824ZM120.497 56.5356C120.06 59.439 117.848 59.439 115.702 59.439H114.465L115.338 54.0252C115.374 53.6977 115.665 53.443 115.993 53.443H116.539C117.994 53.443 119.369 53.443 120.097 54.2798C120.533 54.7892 120.643 55.5169 120.497 56.5356ZM143.702 56.4265H139.817C139.489 56.4265 139.198 56.6811 139.162 57.0086L138.98 58.1001L138.725 57.6999C137.888 56.4992 136.04 56.0626 134.148 56.0626C129.862 56.0626 126.231 59.2935 125.503 63.8341C125.14 66.0826 125.649 68.2656 126.959 69.7864C128.159 71.169 129.826 71.7511 131.827 71.7511C135.276 71.7511 137.168 69.539 137.168 69.539L136.986 70.6305C136.913 71.0307 137.241 71.3945 137.641 71.3945H141.126C141.672 71.3945 142.145 70.9943 142.254 70.4486L144.357 57.1905C144.423 56.8267 144.132 56.4265 143.702 56.4265ZM138.325 63.9796C137.961 66.1917 136.186 67.6835 133.966 67.6835C132.838 67.6835 131.936 67.3196 131.354 66.6283C130.772 65.937 130.553 64.9911 130.735 63.9069C131.099 61.7311 132.875 60.1667 135.058 60.1667C136.149 60.1667 137.051 60.5305 137.634 61.2218C138.252 61.9422 138.507 62.8881 138.325 63.9796Z" fill="#003087"/>
<path d="M201.327 56.4266H197.441C197.114 56.4266 196.823 56.6813 196.786 57.0087L196.604 58.1002L196.35 57.7C195.513 56.4993 193.665 56.0627 191.773 56.0627C187.487 56.0627 183.856 59.2936 183.128 63.8342C182.764 66.0827 183.274 68.2657 184.583 69.7865C185.784 71.1691 187.45 71.7512 189.451 71.7512C192.901 71.7512 194.793 69.5391 194.793 69.5391L194.611 70.6306C194.538 71.0308 194.865 71.3947 195.266 71.3947H198.751C199.297 71.3947 199.77 70.9945 199.879 70.4487L201.982 57.1906C202.055 56.8268 201.764 56.4266 201.327 56.4266ZM195.957 63.9797C195.593 66.1919 193.817 67.6836 191.598 67.6836C190.47 67.6836 189.568 67.3197 188.986 66.6285C188.404 65.9372 188.185 64.9912 188.367 63.907C188.731 61.7313 190.507 60.1668 192.69 60.1668C193.781 60.1668 194.683 60.5306 195.266 61.2219C195.884 61.9423 196.139 62.8882 195.957 63.9797Z" fill="#009CDE"/>
<path d="M164.325 56.4265H160.439C160.075 56.4265 159.711 56.6084 159.493 56.9359L154.115 64.8529L151.831 57.2633C151.685 56.7903 151.248 56.4629 150.739 56.4629H146.926C146.453 56.4629 146.126 56.9359 146.271 57.3725L150.557 69.9393L146.526 75.6005C146.198 76.0371 146.526 76.6556 147.072 76.6556H150.957C151.321 76.6556 151.685 76.4737 151.867 76.1827L164.798 57.518C165.198 57.045 164.87 56.4265 164.325 56.4265Z" fill="#003087"/>
<path d="M205.904 49.5281L202.6 70.6232C202.527 71.0234 202.855 71.3872 203.255 71.3872H206.595C207.141 71.3872 207.614 70.987 207.723 70.4413L210.99 49.7028C211.063 49.3026 210.735 48.9387 210.335 48.9387H206.595C206.231 48.9824 205.94 49.2007 205.904 49.5281Z" fill="#009CDE"/>
<path d="M91.2596 50.0376C91.6962 47.2798 91.2596 45.3878 89.7679 43.6851C88.0942 41.8004 85.1181 41 81.3051 41H70.23C69.466 41 68.7747 41.5821 68.6656 42.3462L64.0158 71.6129C63.9066 72.1951 64.3796 72.7044 64.9617 72.7044H71.7872L71.3143 75.6806C71.2415 76.1899 71.6417 76.6265 72.1511 76.6265H77.9215C78.6128 76.6265 79.1949 76.1172 79.304 75.4623L79.3768 75.1712L80.4683 68.2729L80.5411 67.9091C80.6502 67.2178 81.2323 66.7448 81.9236 66.7448H82.7968C88.3926 66.7448 92.744 64.4963 94.0175 57.9182C94.5632 55.1604 94.2721 52.8682 92.8532 51.2747C92.4239 50.7944 91.8781 50.3651 91.2596 50.0376Z" fill="#009CDE"/>
<path d="M91.2596 50.0376C91.6962 47.2798 91.2596 45.3878 89.7679 43.6851C88.0942 41.8004 85.1181 41 81.3051 41H70.23C69.466 41 68.7747 41.5821 68.6656 42.3462L64.0158 71.6129C63.9066 72.1951 64.3796 72.7044 64.9617 72.7044H71.7872L73.4973 61.8113L73.4609 62.1387C73.57 61.3747 74.2249 60.7925 75.0254 60.7925H78.2926C84.6815 60.7925 89.6951 58.2166 91.1504 50.6998L91.2596 50.0376Z" fill="#012169"/>
<path d="M75.3966 50.074C75.4693 49.601 75.7604 49.2372 76.1606 49.0189C76.3425 48.9461 76.5608 48.8734 76.7427 48.8734H85.4602C86.4789 48.8734 87.454 48.9461 88.3272 49.0917C88.5819 49.128 88.8366 49.1644 89.0549 49.2372C89.3095 49.2736 89.5278 49.3463 89.7461 49.4191L90.0736 49.5283C90.5102 49.6738 90.9104 49.8557 91.2742 50.0376C91.7108 47.2798 91.2742 45.3878 89.7825 43.6851C88.1089 41.8004 85.1327 41 81.3198 41H70.2447C69.4806 41 68.7893 41.5821 68.6802 42.3462L64.0304 71.6129C63.9213 72.1951 64.3942 72.7044 64.9764 72.7044H71.8019L73.5119 61.8113L75.3966 50.074Z" fill="#003087"/>
</svg>
