<svg width="275" height="119" viewBox="0 0 275 119" fill="none" xmlns="http://www.w3.org/2000/svg">
<rect width="274.459" height="118.322" rx="10" fill="#F9F9F9" fill-opacity="0.88"/>
<path d="M141.283 50.7376C142.59 50.7376 143.652 49.6762 143.652 48.3688C143.652 47.0614 142.59 46 141.283 46C139.976 46 138.914 47.0614 138.914 48.3688C138.914 49.6762 139.976 50.7376 141.283 50.7376ZM139.432 66.5945H143.16V52.977H139.432V66.5945ZM132.345 65.0735C131.717 65.9408 130.3 66.8987 128.423 66.8987C124.798 66.8987 122.022 63.6302 122.022 59.7857C122.022 55.9413 124.805 52.6858 128.416 52.6728C130.3 52.6728 131.717 53.6372 132.338 54.498V46.1553H136.073V66.5945H132.345V65.0735ZM125.769 59.7857C125.769 61.941 127.135 63.4878 129.212 63.4878C131.29 63.4878 132.656 61.9345 132.656 59.7857C132.656 57.6305 131.296 56.0772 129.212 56.0772C127.128 56.0772 125.769 57.6305 125.769 59.7857ZM91.13 66.5945H87.1561V51.0095H81.9978V47.2491H96.3337V51.0095H91.13V66.5945ZM100.068 66.5945H96.3401V52.977H100.068V55.1517C100.599 53.7472 101.945 52.8152 103.447 52.8087C103.867 52.7958 104.294 52.854 104.702 52.9705V56.7438C104.159 56.5497 103.589 56.4526 103.013 56.459C101.246 56.459 100.075 57.8247 100.075 60.0835V66.5945H100.068ZM111.873 66.8987C113.757 66.8987 115.174 65.9408 115.796 65.0735V66.601H119.524V52.977H115.796V54.5044C115.168 53.6436 113.75 52.6793 111.873 52.6793C108.249 52.6793 105.466 55.9477 105.466 59.7922C105.466 63.6302 108.249 66.8987 111.873 66.8987ZM112.663 63.4878C110.592 63.4878 109.22 61.9345 109.22 59.7857C109.22 57.6305 110.579 56.0772 112.663 56.0772C114.741 56.0772 116.106 57.6305 116.106 59.7857C116.106 61.941 114.741 63.4878 112.663 63.4878ZM150.208 66.601H146.48L146.474 52.977H150.202V54.5303C150.946 53.4365 152.331 52.6793 154.098 52.6793C157.399 52.6793 159.36 55.0805 159.36 58.6208V66.5945H155.632V59.2356C155.632 57.281 154.784 56.0837 153.231 56.0837C151.49 56.0837 150.208 57.3328 150.208 59.954V66.601ZM168.874 63.0542C167.463 63.0671 166.181 62.2193 165.631 60.9184C165.081 59.6175 165.372 58.1094 166.369 57.1063C167.366 56.1031 168.867 55.7989 170.175 56.3361C171.482 56.8733 172.337 58.1483 172.337 59.5592C172.362 60.4847 172.006 61.3844 171.353 62.0445C170.693 62.7047 169.799 63.0736 168.874 63.0542ZM168.434 72.5618C172.608 72.5618 175.767 70.439 175.767 65.533V52.977H172.039V54.5044C171.307 53.443 169.832 52.6793 168.084 52.6793C164.518 52.6793 161.657 55.7342 161.657 59.5722C161.657 63.4166 164.525 66.4392 168.084 66.4392C169.832 66.4392 171.301 65.6495 172.039 64.6399V65.5654C172.039 67.7465 170.602 69.2934 168.382 69.2934C166.796 69.3128 165.262 68.7044 164.13 67.5977L162.085 70.3742C163.638 71.8758 166.065 72.5554 168.434 72.5554V72.5618ZM187.177 66.5945H183.663L175.683 47.2491H179.961L185.436 60.6854L190.828 47.2556H195.19L187.177 66.5945ZM198.614 50.7376C199.921 50.7376 200.982 49.6762 200.982 48.3688C200.982 47.0614 199.921 46 198.614 46C197.306 46 196.245 47.0614 196.245 48.3688C196.245 49.6762 197.306 50.7376 198.614 50.7376ZM196.756 66.5945H200.484V52.977H196.756V66.5945ZM216.464 63.8438C215.195 65.6948 213.021 66.8987 210.153 66.8987L210.141 66.9051C206.07 66.9051 202.918 64.0897 202.918 59.7922C202.918 55.76 205.947 52.6793 210.089 52.6793C213.661 52.6793 216.794 54.9446 216.794 59.3845C216.813 59.8116 216.794 60.2453 216.736 60.666H206.542C206.762 62.4911 208.367 63.5008 210.166 63.5008C211.882 63.5008 213.053 62.7306 213.681 61.7792L216.464 63.8438ZM209.985 55.7601C208.6 55.7601 207.047 56.4655 206.691 58.1353H213.066C212.742 56.4979 211.377 55.7601 209.985 55.7601ZM230.793 66.5945H234.502L239 52.9705H234.987L232.424 61.6886L229.648 52.9705H226.787L224.036 61.6886L221.447 52.9705H217.467L221.991 66.5945H225.7L228.23 58.8538L230.793 66.5945ZM43.5271 66.5686H51.0478V47.2297H36V54.7504H43.5207V66.5686H43.5271ZM66.0956 66.5686H57.5006L65.5585 47.2232H74.1535L66.0956 66.5686ZM59.8953 47.9611C58.6203 47.0809 56.9634 46.9579 55.5719 47.6375C54.1804 48.317 53.2548 49.6956 53.1642 51.2425C53.0671 52.7893 53.8179 54.2714 55.1188 55.1128C57.0928 56.3943 59.727 55.8507 61.0344 53.8961C62.3418 51.9415 61.8305 49.2943 59.8953 47.9611Z" fill="#131722"/>
</svg>
