<svg width="275" height="119" viewBox="0 0 275 119" fill="none" xmlns="http://www.w3.org/2000/svg">
<rect width="274.459" height="118.322" rx="10" fill="#F9F9F9" fill-opacity="0.88"/>
<path d="M174.09 96.09H101V23H174.09V96.09Z" fill="white"/>
<path d="M174.09 62.5903V23.0303H101V96.1203H174.09V74.8003C173.93 74.7903 174.09 62.5903 174.09 62.5903Z" fill="#006FCF"/>
<path d="M165.14 58.5202H170.67V45.6602H164.65V47.4502L163.51 45.6602H158.3V47.9402L157.32 45.6602H147.72C147.39 45.6602 147.07 45.8202 146.74 45.8202C146.41 45.8202 146.25 45.9801 145.93 46.1501C145.61 46.3201 145.44 46.3102 145.12 46.4802V45.6702H117.61L116.8 47.7902L115.99 45.6702H109.48V47.9502L108.5 45.6702H103.29L101.01 51.2002V58.5302H104.75L105.4 56.7402H106.7L107.35 58.5302H136V56.9001L137.14 58.5302H145.12V57.5502C145.28 57.7102 145.61 57.7102 145.77 57.8802C145.93 58.0502 146.26 58.0402 146.42 58.2102C146.75 58.3702 147.07 58.3701 147.4 58.3701H153.26L153.91 56.5802H155.21L155.86 58.3701H163.84V56.7402C163.84 56.7302 165.14 58.5202 165.14 58.5202ZM174.09 74.7902V62.7402H129.33L128.19 64.3701L127.05 62.7402H114.03V75.6002H127.05L128.19 73.9702L129.33 75.6002H137.47V72.8302H137.14C138.28 72.8302 139.26 72.6701 140.07 72.3401V75.7602H145.93V74.1302L147.07 75.7602H171.32C172.3 75.4502 173.28 75.2802 174.09 74.7902Z" fill="white"/>
<path d="M171.33 71.7H166.93V73.49H171.16C172.95 73.49 174.09 72.35 174.09 70.72C174.09 69.09 173.11 68.28 171.49 68.28H169.54C169.05 68.28 168.73 67.95 168.73 67.47C168.73 66.99 169.06 66.66 169.54 66.66H173.28L174.09 64.87H169.69C167.9 64.87 166.76 66.01 166.76 67.47C166.76 69.1 167.74 69.91 169.36 69.91H171.31C171.8 69.91 172.12 70.24 172.12 70.72C172.3 71.38 171.98 71.7 171.33 71.7ZM163.35 71.7H158.95V73.49H163.18C164.97 73.49 166.11 72.35 166.11 70.72C166.11 69.09 165.13 68.28 163.51 68.28H161.56C161.07 68.28 160.75 67.95 160.75 67.47C160.75 66.99 161.08 66.66 161.56 66.66H165.3L166.11 64.87H161.71C159.92 64.87 158.78 66.01 158.78 67.47C158.78 69.1 159.76 69.91 161.38 69.91H163.33C163.82 69.91 164.14 70.24 164.14 70.72C164.33 71.38 163.84 71.7 163.35 71.7ZM157.65 66.49V64.7H150.81V73.33H157.65V71.54H152.77V69.75H157.49V67.96H152.77V66.33H157.65V66.49ZM146.58 66.49C147.39 66.49 147.72 66.98 147.72 67.47C147.72 67.96 147.39 68.45 146.58 68.45H144.14V66.33L146.58 66.49ZM144.14 70.24H145.12L147.72 73.33H150.16L147.23 70.07C148.7 69.74 149.51 68.77 149.51 67.47C149.51 65.84 148.37 64.7 146.58 64.7H142.02V73.33H143.97C143.98 73.33 144.14 70.24 144.14 70.24ZM138.93 67.63C138.93 68.28 138.6 68.77 137.79 68.77H135.19V66.49H137.63C138.44 66.49 138.93 66.98 138.93 67.63ZM133.23 64.7V73.33H135.18V70.4H137.78C139.57 70.4 140.87 69.26 140.87 67.47C140.87 65.84 139.73 64.54 137.94 64.54C137.96 64.54 133.23 64.7 133.23 64.7ZM130.3 73.33H132.74L129.32 68.93L132.74 64.7H130.3L128.18 67.47L126.06 64.7H123.62L127.04 68.93L123.62 73.16H126.06L128.18 70.39C128.19 70.4 130.3 73.33 130.3 73.33ZM122.98 66.49V64.7H116.14V73.33H122.98V71.54H118.1V69.75H122.82V67.96H118.1V66.33H122.98V66.49ZM162.53 51.19L165.95 56.4H168.39V47.77H166.44V53.47L165.95 52.66L162.86 47.78H160.26V56.41H162.21V50.55C162.21 50.54 162.53 51.19 162.53 51.19ZM154.07 51.03L154.72 49.24L155.37 51.03L156.18 52.98H153.25C153.26 52.98 154.07 51.03 154.07 51.03ZM157.49 56.4H159.61L155.87 47.77H153.27L149.53 56.4H151.65L152.46 54.61H156.69C156.67 54.61 157.49 56.4 157.49 56.4ZM148.37 56.4L149.18 54.61H148.69C147.22 54.61 146.41 53.63 146.41 52.17V52.01C146.41 50.54 147.22 49.57 148.69 49.57H150.81V47.78H148.53C145.93 47.78 144.46 49.57 144.46 52.01V52.17C144.47 54.77 145.93 56.4 148.37 56.4ZM141.05 56.4H143V47.94H141.05V56.4ZM136.82 49.56C137.63 49.56 137.96 50.05 137.96 50.54C137.96 51.03 137.63 51.52 136.82 51.52H134.38V49.4C134.37 49.4 136.82 49.56 136.82 49.56ZM134.37 53.31H135.35L137.95 56.4H140.39L137.46 53.14C138.93 52.81 139.74 51.84 139.74 50.54C139.74 48.91 138.6 47.77 136.81 47.77H132.25V56.4H134.2C134.21 56.4 134.37 53.31 134.37 53.31ZM130.79 49.56V47.77H123.95V56.4H130.79V54.61H125.91V52.82H130.63V51.03H125.91V49.4H130.79V49.56ZM115.98 56.4H117.77L120.21 49.4V56.4H122.16V47.77H118.9L116.95 53.63L115 47.77H111.74V56.4H113.69V49.4C113.7 49.4 115.98 56.4 115.98 56.4ZM105.4 51.03L106.05 49.24L106.7 51.03L107.51 52.98H104.58C104.59 52.98 105.4 51.03 105.4 51.03ZM108.82 56.4H110.94L107.2 47.77H104.76L101.02 56.4H103.14L103.95 54.61H108.18C108.17 54.61 108.82 56.4 108.82 56.4Z" fill="#006FCF"/>
</svg>
