<svg width="397" height="138" viewBox="0 0 397 138" fill="none" xmlns="http://www.w3.org/2000/svg">
<path d="M1 128.754L1.43402 128.508C2.4639 127.924 3.7728 128.358 4.25046 129.441L5.32971 131.889C5.685 132.694 6.84005 132.66 7.14591 131.834V131.834C7.46295 130.978 8.67501 130.982 8.98656 131.84L9.31315 132.739C9.72104 133.862 11.2878 133.921 11.7783 132.831L14.1789 127.498C14.357 127.102 14.8845 127.022 15.1716 127.348V127.348C15.4464 127.66 15.9476 127.602 16.1451 127.237L18.5277 122.826C19.1817 121.615 20.8346 121.411 21.7633 122.426L23.5788 124.412C24.0552 124.932 24.9082 124.8 25.2047 124.16L25.4761 123.574C25.7721 122.934 26.7057 123.014 26.8883 123.695V123.695C27.0812 124.414 28.0882 124.448 28.3296 123.744L28.8716 122.164C29.2404 121.089 30.7305 121.009 31.2121 122.039L32.8342 125.507L34.5743 128.89C34.9002 129.523 35.7122 129.721 36.2924 129.307L36.8702 128.895C37.402 128.516 38.1399 128.896 38.1399 129.549V129.856C38.1399 130.665 39.2511 130.889 39.5649 130.143L39.6939 129.837C39.8058 129.571 40.1306 129.471 40.3726 129.628V129.628C40.6807 129.828 41.0875 129.606 41.0875 129.239V128.912C41.0875 128.266 41.9347 128.026 42.274 128.575L43.3351 130.294C43.6315 130.774 44.3451 130.725 44.5728 130.209V130.209C44.8187 129.651 45.6097 129.651 45.8555 130.209L46.9034 132.585C47.2687 133.414 48.2489 133.773 49.0634 133.378V133.378C50.059 132.894 51.233 133.545 51.3502 134.645L51.4135 135.24C51.6468 137.432 54.8025 137.527 55.1672 135.353L55.5121 133.297C55.6378 132.548 56.5763 132.28 57.0788 132.849V132.849C57.5533 133.387 58.4358 133.183 58.6257 132.491L59.6828 128.638C60.0541 127.285 61.7749 126.877 62.7139 127.92V127.92C63.6046 128.91 65.2272 128.603 65.6951 127.356L68.619 119.567C69.1032 118.277 70.9172 118.249 71.4415 119.523L71.8355 120.48C72.0688 121.047 72.8089 121.185 73.231 120.741V120.741C73.7573 120.187 74.6903 120.559 74.6903 121.323V122.151C74.6903 123.038 75.7185 123.528 76.4075 122.97V122.97C76.784 122.665 77.3198 122.657 77.7063 122.949L78.1389 123.276C78.533 123.574 79.0827 123.551 79.4516 123.223L79.5133 123.168C80.1566 122.595 81.175 123.051 81.175 123.913V124.032C81.175 124.714 81.8887 125.16 82.5019 124.862V124.862C83.0319 124.605 83.6643 124.903 83.8029 125.476L84.0024 126.3C84.4154 128.006 86.8745 127.907 87.1498 126.174L90.3771 105.842C90.5617 104.679 92.2063 104.602 92.4996 105.742L92.6203 106.211C92.7741 106.809 93.5165 107.018 93.9593 106.588V106.588C94.4689 106.092 95.3236 106.453 95.3236 107.164V110.481C95.3236 111.639 96.5795 112.36 97.5796 111.777V111.777C98.0118 111.525 98.5412 111.505 98.9912 111.723L99.1567 111.804C100.382 112.399 101.808 111.507 101.808 110.144V101.988C101.808 100.813 103.428 100.499 103.867 101.589V101.589C104.274 102.601 105.758 102.423 105.915 101.344L107.04 93.5969C107.221 92.3488 108.939 92.1481 109.403 93.3209V93.3209C109.826 94.3907 111.355 94.3468 111.716 93.2544L112.076 92.1656C112.258 91.6161 112.882 91.3525 113.403 91.6055V91.6055C114.038 91.9143 114.778 91.4515 114.778 90.745V88.8866C114.778 88.3947 115.34 88.1149 115.733 88.4115V88.4115C116.096 88.6864 116.621 88.4675 116.682 88.0156L117.812 79.5966C117.966 78.4443 119.521 78.1916 120.052 79.2254V79.2254C120.378 79.8589 121.193 80.0612 121.773 79.6476V79.6476C122.547 79.0961 123.621 79.6493 123.621 80.5996V83.7012C123.621 84.6232 124.83 84.9665 125.314 84.1819V84.1819C125.642 83.6516 126.392 83.5965 126.793 84.0732L127.044 84.3717C127.373 84.7625 127.996 84.6822 128.216 84.2207V84.2207C128.481 83.6607 129.29 83.6952 129.507 84.2759L129.974 85.5233C130.398 86.6573 132.019 86.606 132.371 85.4474L133.511 81.6912C133.962 80.207 136.015 80.0831 136.641 81.5023L136.699 81.6332C136.98 82.271 137.665 82.6293 138.35 82.4963V82.4963C139.271 82.3172 140.127 83.0229 140.127 83.9617V90.613C140.127 90.9506 140.213 91.2827 140.376 91.5784L141.669 93.9248C142.347 95.1541 144.047 95.3212 144.951 94.2473L145.542 93.5442C146.101 92.8806 147.123 92.8806 147.682 93.5442L148.897 94.9884C149.323 95.4946 150.149 95.1933 150.149 94.5317V94.5317C150.149 93.8375 151.043 93.5566 151.44 94.1261L152.212 95.2341C152.847 96.1442 154.276 95.6954 154.276 94.586V92.8751C154.276 92.0343 155.121 91.4562 155.904 91.7608V91.7608C156.594 92.029 157.359 91.6124 157.509 90.8876L158.356 86.7717C158.617 85.4988 160.221 85.0724 161.081 86.0471L161.701 86.7501C162.108 87.212 162.848 87.1384 163.157 86.6054V86.6054C163.566 85.8984 164.629 86.0568 164.815 86.8524L165.385 89.3026C165.797 91.0688 168.214 91.3057 168.961 89.653L169.819 87.753C170.027 87.2939 170.564 87.0859 171.026 87.2857V87.2857C171.527 87.502 172.105 87.239 172.271 86.7192L172.517 85.9505C172.935 84.6417 174.765 84.582 175.303 85.8461V85.8461C175.689 86.7514 176.849 87.032 177.594 86.3887L178.042 86.0014C178.723 85.4135 179.784 85.8159 179.904 86.7072L179.91 86.7579C180.033 87.6753 181.161 88.0453 181.804 87.3791V87.3791C182.402 86.7595 183.447 87.0292 183.67 87.8605L184.686 91.647C185.07 93.0791 186.825 93.6096 187.938 92.6304L188.81 91.8636C189.305 91.4283 190.029 91.3753 190.582 91.7337V91.7337C191.086 92.06 191.737 92.0479 192.228 91.7032L192.496 91.5153C193.653 90.7031 195.263 91.3482 195.539 92.7345L198.075 105.471C198.234 106.269 199.266 106.498 199.747 105.842L201.102 103.999C201.209 103.854 201.438 103.929 201.438 104.109V104.109C201.438 104.32 201.733 104.367 201.8 104.167L202.925 100.763C203.073 100.317 203.584 100.109 204.001 100.325L205.516 101.111C205.807 101.262 206.154 101.051 206.154 100.723V100.723C206.154 100.297 206.703 100.123 206.948 100.473L207.628 101.442C208.082 102.09 209.101 101.768 209.101 100.976V97.6012C209.101 96.5739 210.103 95.8452 211.081 96.1619V96.1619C211.666 96.3516 212.308 96.1677 212.705 95.6969L213.646 94.5784C214.306 93.794 215.586 94.2609 215.586 95.2863V96.412C215.586 97.0328 216.355 97.3232 216.765 96.8576L217.094 96.4843C217.39 96.1487 217.944 96.358 217.944 96.8055V96.8055C217.944 97.265 218.523 97.4675 218.81 97.108L221.059 94.2842C221.824 93.3241 223.318 93.4447 223.918 94.5152L224.413 95.3958C224.718 95.941 225.458 96.0484 225.906 95.6126V95.6126C226.352 95.179 227.088 95.2828 227.397 95.8229L229.21 98.9957C229.49 99.4853 230.133 99.623 230.589 99.2907V99.2907C231.214 98.8349 232.093 99.2815 232.093 100.055V109.15C232.093 109.757 232.781 110.107 233.272 109.75V109.75C233.762 109.393 234.451 109.743 234.451 110.35V113.788C234.451 114.847 235.588 115.517 236.514 115.002L238.036 114.157C238.279 114.022 238.578 114.198 238.578 114.476V114.476C238.578 114.89 239.157 114.984 239.288 114.592L240.535 110.854C240.609 110.633 240.936 110.686 240.936 110.919V110.919C240.936 111.119 241.193 111.201 241.309 111.037L246.39 103.853C246.957 103.052 248.069 102.869 248.862 103.447V103.447C249.42 103.854 250.164 103.897 250.765 103.556L252.861 102.368C253.702 101.891 254.77 102.31 255.062 103.232L255.148 103.505C255.6 104.933 257.658 104.819 257.949 103.349V103.349C258.271 101.721 260.634 101.826 260.81 103.477L261.881 113.542C261.981 114.485 263.18 114.824 263.759 114.074V114.074C264.3 113.373 265.411 113.612 265.615 114.473L266.601 118.625C266.738 119.201 267.389 119.485 267.905 119.193L268.62 118.788C268.893 118.633 269.233 118.83 269.233 119.145V119.145C269.233 119.598 269.859 119.717 270.025 119.295L272.586 112.796C272.624 112.698 272.77 112.726 272.77 112.831V112.831C272.77 112.92 272.881 112.96 272.938 112.892L275.255 110.14C275.809 109.482 276.819 109.471 277.388 110.116L277.884 110.679C278.362 111.221 279.107 111.445 279.805 111.257V111.257C281.014 110.93 282.202 111.84 282.202 113.092V115.89C282.202 117.018 283.61 117.532 284.337 116.668V116.668C284.948 115.942 286.119 116.171 286.412 117.074L288.206 122.594C288.682 124.059 290.564 124.459 291.594 123.314L292.175 122.67C292.87 121.898 294.039 121.786 294.867 122.412L295.07 122.565C296.051 123.307 297.464 122.996 298.042 121.91L299.104 119.913C299.472 119.222 300.429 119.142 300.907 119.761V119.761C301.534 120.574 302.835 120.13 302.835 119.103V118.648C302.835 117.886 303.726 117.472 304.309 117.963V117.963C304.892 118.454 305.783 118.039 305.783 117.277V117.204C305.783 116.382 306.772 115.964 307.362 116.537L307.552 116.721C308.212 117.364 309.32 116.895 309.32 115.974V115.384M309.32 112.328V115.384M309.32 115.384L312.312 112.799C312.651 112.507 313.117 112.413 313.542 112.55V112.55C314.369 112.818 315.215 112.202 315.215 111.334V107.834C315.215 106.73 316.111 105.834 317.215 105.834H317.932C319.036 105.834 319.932 104.939 319.932 103.834V101.846C319.932 100.74 321.135 100.055 322.085 100.62V100.62C322.821 101.057 323.773 100.752 324.118 99.9693L325.961 95.7899C326.195 95.2588 326.86 95.0799 327.329 95.4218V95.4218C327.93 95.8601 328.774 95.4307 328.774 94.6867V91.2653C328.774 90.1934 330.051 89.6355 330.838 90.3636V90.3636C331.624 91.0918 332.901 90.5339 332.901 89.462V77.9799C332.901 77.586 333.017 77.2008 333.236 76.8727L335.007 74.208C335.125 74.0304 335.214 73.835 335.27 73.6293L337.804 64.3855C338.042 63.5165 338.831 62.914 339.732 62.914H340.354C341.001 62.914 341.608 62.601 341.983 62.0739L343.895 59.3886C344.032 59.196 344.134 58.9806 344.196 58.7525L346.404 50.616L347.938 43.8034L349.593 38.9634C349.632 38.8508 349.66 38.7351 349.678 38.6175L351.108 29.2301C351.412 27.2347 354.193 26.9959 354.832 28.9103L355.177 29.9403C355.481 30.8527 356.649 31.11 357.31 30.4102V30.4102C357.818 29.8717 358.676 29.8786 359.175 30.4253L359.225 30.4801C359.869 31.1846 361.021 31.0114 361.429 30.1488L363.461 25.8504C363.732 25.2777 364.538 25.2536 364.842 25.8091V25.8091C365.193 26.4484 366.152 26.2947 366.285 25.5778L366.927 22.1179C367.018 21.6273 367.289 21.1885 367.687 20.8876L370.76 18.5644C371.548 17.9687 372.678 18.5308 372.678 19.5187V19.5187C372.678 20.3833 373.567 20.9624 374.358 20.6128L376.139 19.8256C376.387 19.7157 376.611 19.5562 376.796 19.357L378.877 17.1146L380.027 15.9135C381.02 14.8761 382.75 15.1921 383.312 16.5135L384.196 18.591C384.755 19.9053 386.472 20.2268 387.469 19.204L389.39 17.2326C389.467 17.1541 389.537 17.0694 389.599 16.9794L391.698 13.9651C391.81 13.804 391.898 13.6272 391.958 13.4404L396 1" stroke="url(#paint0_linear_270_244)" stroke-opacity="0.15" stroke-width="2" stroke-linejoin="round"/>
<defs>
<linearGradient id="paint0_linear_270_244" x1="1" y1="88.3582" x2="383.01" y2="88.3582" gradientUnits="userSpaceOnUse">
<stop offset="0.62" stop-color="white"/>
<stop offset="1" stop-color="white"/>
</linearGradient>
</defs>
</svg>
