<svg width="1917" height="413" viewBox="0 0 1917 413" fill="none" xmlns="http://www.w3.org/2000/svg">
<path d="M-4 348.389L6.31645 344.33C7.20795 343.979 8.22295 344.31 8.73674 345.119L20.8283 364.148C21.6497 365.44 23.5596 365.368 24.2807 364.017L29.7737 353.726C30.5303 352.308 32.5651 352.317 33.3101 353.74L41.8203 370.003C42.5299 371.359 44.4374 371.448 45.2703 370.164L62.9556 342.9C63.5959 341.913 64.9457 341.689 65.8703 342.417L68.494 344.481C69.3653 345.167 70.628 345.013 71.309 344.138L89.6014 320.638C90.274 319.774 91.5163 319.611 92.3886 320.273L112.825 335.78C113.743 336.476 115.059 336.255 115.698 335.297L121.269 326.947C122.168 325.599 124.213 325.825 124.798 327.336L127.692 334.818C128.32 336.442 130.578 336.544 131.35 334.983L139.659 318.17C140.339 316.794 142.252 316.665 143.11 317.939L156 337.065L166.857 351.709C167.433 352.487 168.483 352.74 169.35 352.311L179.78 347.152C181.109 346.495 182.667 347.462 182.667 348.945V357.889C182.667 359.912 185.327 360.656 186.377 358.926L190.638 351.9C191.162 351.036 192.247 350.699 193.169 351.113L194.661 351.784C195.985 352.379 197.481 351.411 197.481 349.96V346.319C197.481 344.48 199.754 343.616 200.976 344.989L210.535 355.735C211.418 356.728 213.005 356.6 213.717 355.478L216.534 351.046C217.32 349.809 219.125 349.809 219.91 351.046L229.233 365.717C229.727 366.495 230.688 366.834 231.56 366.54L245.597 361.806C246.774 361.409 248.024 362.17 248.213 363.398L255.203 408.975C255.535 411.141 258.609 411.272 259.124 409.141L270.823 360.744C271.166 359.327 272.859 358.741 274.004 359.642L281.298 365.381C282.35 366.209 283.902 365.789 284.394 364.545L294.282 339.535C294.772 338.298 296.31 337.874 297.363 338.686L314.138 351.617C315.114 352.369 316.532 352.068 317.118 350.985L340.988 306.861C341.727 305.495 343.674 305.456 344.467 306.793L353.396 321.848C353.998 322.863 355.343 323.139 356.296 322.443L363.19 317.405C364.512 316.44 366.37 317.384 366.37 319.02V329.649C366.37 331.179 368.017 332.142 369.35 331.393L377.275 326.939C377.866 326.607 378.584 326.596 379.184 326.911L386.101 330.539C386.727 330.868 387.48 330.841 388.082 330.469L395.911 325.629C397.244 324.805 398.963 325.763 398.963 327.33V334.279C398.963 335.647 400.306 336.612 401.602 336.175L408.939 333.7C409.978 333.35 411.106 333.901 411.467 334.937L420.378 360.481C421.039 362.376 423.768 362.225 424.216 360.268L447.838 257.001C448.282 255.064 450.973 254.889 451.663 256.752L457.338 272.062C457.788 273.277 459.257 273.749 460.332 273.025L466.956 268.557C468.284 267.661 470.074 268.613 470.074 270.215V290.798C470.074 292.217 471.51 293.184 472.824 292.652L484.202 288.048C484.645 287.869 485.138 287.854 485.591 288.007L500.028 292.875C501.324 293.313 502.667 292.348 502.667 290.98V243.244C502.667 241.2 505.371 240.472 506.397 242.24L517.826 261.94C518.746 263.526 521.138 263.141 521.513 261.346L531.215 214.996C531.592 213.194 533.998 212.816 534.91 214.415L545.215 232.486C546.015 233.889 548.063 233.814 548.758 232.356L555.237 218.761C555.672 217.847 556.722 217.403 557.681 217.726L565.213 220.266C566.509 220.703 567.852 219.739 567.852 218.371V208.476C567.852 206.972 569.449 206.006 570.781 206.705L574.359 208.582C575.546 209.205 576.997 208.506 577.251 207.191L584.767 168.331C585.097 166.622 587.301 166.122 588.337 167.52L596.486 178.513C597.062 179.29 598.112 179.543 598.98 179.114L609.41 173.955C610.739 173.298 612.296 174.265 612.296 175.748V197.247C612.296 199.085 614.569 199.95 615.791 198.576L622.868 190.62C623.583 189.817 624.805 189.722 625.634 190.406L631.349 195.117C632.256 195.865 633.609 195.673 634.272 194.704L637.11 190.557C637.955 189.321 639.81 189.419 640.52 190.738L648.867 206.219C649.658 207.686 651.792 207.599 652.46 206.071L667.087 172.638C667.729 171.171 669.748 171.016 670.607 172.367L679.758 186.768C680.176 187.427 680.94 187.782 681.713 187.678L692.992 186.156C694.192 185.994 695.259 186.927 695.259 188.138V216.461C695.259 216.913 695.412 217.352 695.693 217.705L708.807 234.216C709.503 235.092 710.782 235.227 711.646 234.516L726.58 222.205C727.319 221.596 728.385 221.596 729.124 222.205L742.358 233.114C743.662 234.189 745.63 233.261 745.63 231.57V225.969C745.63 224.19 747.78 223.296 749.041 224.552L762.959 238.41C764.22 239.666 766.37 238.772 766.37 236.993V219.77C766.37 218.454 767.62 217.496 768.891 217.839L779.302 220.648C780.349 220.93 781.431 220.326 781.74 219.285L789.236 194.005C789.638 192.651 791.28 192.128 792.39 193.002L806.324 203.966C807.175 204.636 808.404 204.507 809.097 203.676L814.448 197.259C815.45 196.058 817.382 196.42 817.88 197.904L827.276 225.895C827.809 227.481 829.936 227.751 830.849 226.35L845.554 203.758C846.038 203.015 846.954 202.679 847.804 202.934L853.595 204.669C854.549 204.956 855.569 204.495 855.986 203.59L862.584 189.25C863.252 187.798 865.269 187.678 866.105 189.041L874.965 203.481C875.538 204.416 876.757 204.714 877.698 204.151L891.328 195.979C892.519 195.265 894.056 195.952 894.32 197.314L896.147 206.762C896.424 208.195 898.094 208.858 899.279 208.006L909.456 200.684C910.518 199.92 912.017 200.365 912.489 201.586L922.544 227.583C922.994 228.746 924.387 229.218 925.451 228.569L943.248 217.708C943.811 217.365 944.508 217.321 945.11 217.592L952.183 220.772C952.724 221.015 953.345 221.006 953.879 220.746L968.674 213.539C969.791 212.995 971.129 213.591 971.472 214.786L987.686 271.289C988.1 272.729 989.892 273.22 990.982 272.191L1001.91 261.874C1002.47 261.339 1003.41 261.741 1003.41 262.521V262.521C1003.41 263.468 1004.69 263.759 1005.1 262.903L1011.52 249.436C1011.96 248.508 1013.03 248.067 1014 248.414L1024.54 252.207C1025.79 252.657 1027.11 251.73 1027.11 250.401V250.401C1027.11 248.696 1029.17 247.838 1030.38 249.037L1038.52 257.088C1039.78 258.338 1041.93 257.443 1041.93 255.667V234.98C1041.93 233.698 1043.11 232.748 1044.36 233.029L1055.79 235.596C1056.39 235.732 1057.02 235.581 1057.5 235.188L1071.25 223.853C1072.55 222.778 1074.52 223.706 1074.52 225.397V237.688C1074.52 239.357 1076.44 240.292 1077.76 239.259L1083.13 235.027C1084.45 233.995 1086.37 234.929 1086.37 236.599V237.411C1086.37 239.128 1088.39 240.047 1089.68 238.919L1108.51 222.519C1109.36 221.774 1110.67 221.888 1111.38 222.769L1120.77 234.385C1121.43 235.192 1122.59 235.366 1123.45 234.786L1129.31 230.832C1130.16 230.256 1131.32 230.423 1131.97 231.218L1144.61 246.566C1145.21 247.288 1146.22 247.501 1147.06 247.079L1154.58 243.275C1155.91 242.602 1157.48 243.568 1157.48 245.059V281.852C1157.48 283.343 1159.05 284.31 1160.38 283.637L1166.43 280.579C1167.76 279.906 1169.33 280.872 1169.33 282.363V301.509C1169.33 302.914 1170.74 303.881 1172.05 303.376L1187.75 297.326C1188.87 296.894 1190.07 297.721 1190.07 298.921V298.921C1190.07 300.74 1192.54 301.301 1193.32 299.662L1200.05 285.666C1200.51 284.722 1201.93 285.045 1201.93 286.092V286.092C1201.93 286.964 1202.98 287.405 1203.6 286.795L1233.49 257.466C1234.11 256.865 1235.03 256.722 1235.8 257.109L1245.57 262.052C1246.08 262.309 1246.67 262.337 1247.21 262.128L1268.31 253.825C1269.3 253.436 1270.42 253.889 1270.86 254.856L1279.67 274.17C1280.44 275.862 1282.91 275.676 1283.41 273.888L1294.23 235.96C1294.82 233.895 1297.8 234.083 1298.13 236.205L1308.03 300.764C1308.27 302.336 1310.16 303.011 1311.35 301.948L1321.16 293.124C1322.22 292.165 1323.92 292.607 1324.39 293.964L1331.62 315.101C1331.99 316.179 1333.18 316.732 1334.24 316.314L1341.55 313.439C1342.8 312.949 1344.15 313.868 1344.15 315.209V315.209C1344.15 317.162 1346.74 317.846 1347.7 316.148L1361.08 292.586C1361.31 292.183 1361.93 292.346 1361.93 292.809V292.809C1361.93 293.19 1362.37 293.4 1362.66 293.157L1378.46 280.135C1379.19 279.537 1380.23 279.525 1380.97 280.106L1390.84 287.875C1391.3 288.232 1391.88 288.375 1392.45 288.269L1406.97 285.549C1408.2 285.319 1409.33 286.263 1409.33 287.515V310.841C1409.33 312.532 1411.3 313.46 1412.61 312.384L1425.12 302.067C1426.13 301.236 1427.65 301.579 1428.2 302.762L1443.83 336.139C1444.37 337.297 1445.85 337.656 1446.86 336.875L1464.61 323.192C1465.23 322.715 1466.07 322.642 1466.76 323.005L1481.92 330.953C1482.78 331.405 1483.84 331.171 1484.43 330.399L1496.91 314.134C1497.62 313.208 1498.96 313.084 1499.83 313.864L1509.7 322.739C1510.99 323.897 1513.04 322.983 1513.04 321.252V309.908C1513.04 308.363 1514.71 307.402 1516.05 308.181L1524.84 313.323C1526.18 314.102 1527.85 313.141 1527.85 311.596V304.188C1527.85 302.586 1529.64 301.634 1530.97 302.53L1542.51 310.314C1543.84 311.21 1545.63 310.258 1545.63 308.656V301.759M1545.63 291.101V301.759M1545.63 301.759L1562.72 291.512C1563.16 291.248 1563.69 291.164 1564.19 291.276L1572.82 293.217C1574.07 293.498 1575.26 292.547 1575.26 291.266V270.452C1575.26 269.347 1576.15 268.452 1577.26 268.452H1596.96C1598.07 268.452 1598.96 267.557 1598.96 266.452V248.791C1598.96 247.367 1600.41 246.399 1601.73 246.942L1615.19 252.492C1616.09 252.861 1617.12 252.534 1617.64 251.715L1630.58 231.346C1631.13 230.478 1632.26 230.17 1633.17 230.634L1640.5 234.343C1641.84 235.016 1643.41 234.049 1643.41 232.558V211.495C1643.41 209.913 1645.16 208.957 1646.49 209.812L1661.07 219.177C1662.4 220.032 1664.15 219.076 1664.15 217.494V194.487C1664.15 192.983 1665.75 192.017 1667.08 192.716L1687.89 203.632C1689.22 204.331 1690.81 203.365 1690.81 201.861V131.657C1690.81 130.055 1692.6 129.103 1693.93 129.999L1704.51 137.134C1705.19 137.59 1706.07 137.59 1706.75 137.134L1717.98 129.561C1719.03 128.852 1720.44 129.606 1720.44 130.874V130.874C1720.44 132.783 1723.2 133.061 1723.58 131.191L1739.04 55.4705C1739.34 53.9688 1741.16 53.3559 1742.31 54.3633L1747.41 58.8088C1748.44 59.706 1750.04 59.3318 1750.57 58.072L1756.93 42.8321C1757.64 41.1337 1760.07 41.2138 1760.67 42.9552L1766.92 61.2303C1767.65 63.3684 1770.81 62.8426 1770.81 60.5829V57.1503C1770.81 55.5282 1772.64 54.5808 1773.97 55.5169L1788.4 65.7146C1789.73 66.6507 1791.56 65.7033 1791.56 64.0812V46.9505C1791.56 45.7278 1792.64 44.7913 1793.85 44.9725L1807.04 46.9487C1808.25 47.1299 1809.33 46.1935 1809.33 44.9708V27.8276C1809.33 26.3537 1810.87 25.3861 1812.2 26.0258L1827.98 33.6258C1829.08 34.1573 1830.4 33.5814 1830.76 32.4105L1839.62 3.53325C1840.22 1.55008 1843.08 1.69021 1843.49 3.72346L1850.49 38.3617C1850.68 39.2946 1851.5 39.9654 1852.45 39.9654H1860.67C1861.77 39.9654 1862.67 40.8608 1862.67 41.9654V64.1545C1862.67 66.0544 1865.07 66.8838 1866.24 65.3894L1869.22 61.5915C1870.21 60.328 1872.21 60.69 1872.7 62.2208L1879.04 82.1799C1879.57 83.851 1881.84 84.0786 1882.7 82.5462L1891.57 66.5863C1892 65.8111 1892.89 65.4123 1893.76 65.6069L1916 70.6079" stroke="url(#paint0_linear_1536_1313)" stroke-opacity="0.5" stroke-width="4" stroke-linejoin="round"/>
<defs>
<linearGradient id="paint0_linear_1536_1313" x1="-4" y1="207.5" x2="1916" y2="207.5" gradientUnits="userSpaceOnUse">
<stop stop-color="white" stop-opacity="0.21"/>
<stop offset="1" stop-color="white"/>
</linearGradient>
</defs>
</svg>
